<svg viewBox="0 0 400 600" xmlns="http://www.w3.org/2000/svg">
  <defs>
    <!-- Modern gradient backgrounds -->
    <linearGradient id="mainBg" x1="0%" y1="0%" x2="100%" y2="100%">
      <stop offset="0%" style="stop-color:#0f172a;stop-opacity:1" />
      <stop offset="40%" style="stop-color:#1e293b;stop-opacity:1" />
      <stop offset="100%" style="stop-color:#020617;stop-opacity:1" />
    </linearGradient>
    
    <linearGradient id="accentGradient" x1="0%" y1="0%" x2="100%" y2="100%">
      <stop offset="0%" style="stop-color:#3b82f6;stop-opacity:0.8" />
      <stop offset="50%" style="stop-color:#1d4ed8;stop-opacity:0.6" />
      <stop offset="100%" style="stop-color:#1e40af;stop-opacity:0.4" />
    </linearGradient>
    
    <linearGradient id="indexGradient" x1="0%" y1="0%" x2="100%" y2="0%">
      <stop offset="0%" style="stop-color:#60a5fa;stop-opacity:0.3" />
      <stop offset="50%" style="stop-color:#3b82f6;stop-opacity:0.5" />
      <stop offset="100%" style="stop-color:#2563eb;stop-opacity:0.3" />
    </linearGradient>

    <!-- Blur filters for array indices -->
    <filter id="softBlur" x="-50%" y="-50%" width="200%" height="200%">
      <feGaussianBlur stdDeviation="4" result="blur"/>
      <feOffset in="blur" dx="0" dy="2" result="offsetBlur"/>
      <feMerge>
        <feMergeNode in="offsetBlur"/>
        <feMergeNode in="SourceGraphic"/>
      </feMerge>
    </filter>
    
    <filter id="mediumBlur" x="-50%" y="-50%" width="200%" height="200%">
      <feGaussianBlur stdDeviation="8"/>
    </filter>
    
    <filter id="heavyBlur" x="-50%" y="-50%" width="200%" height="200%">
      <feGaussianBlur stdDeviation="12"/>
    </filter>
    
    <filter id="titleGlow" x="-50%" y="-50%" width="200%" height="200%">
      <feGaussianBlur stdDeviation="2" result="coloredBlur"/>
      <feMerge> 
        <feMergeNode in="coloredBlur"/>
        <feMergeNode in="SourceGraphic"/>
      </feMerge>
    </filter>
  </defs>
  
  <!-- Main background -->
  <rect width="400" height="600" fill="url(#mainBg)"/>
  
  <!-- Array index representations with blur effects -->
  <!-- Back layer - heavily blurred large shapes -->
  <g opacity="0.15">
    <rect x="50" y="100" width="80" height="60" rx="8" fill="url(#accentGradient)" filter="url(#heavyBlur)"/>
    <rect x="270" y="150" width="70" height="50" rx="8" fill="url(#accentGradient)" filter="url(#heavyBlur)"/>
    <rect x="80" y="220" width="90" height="70" rx="8" fill="url(#accentGradient)" filter="url(#heavyBlur)"/>
    <rect x="250" y="280" width="85" height="55" rx="8" fill="url(#accentGradient)" filter="url(#heavyBlur)"/>
    <rect x="60" y="350" width="75" height="65" rx="8" fill="url(#accentGradient)" filter="url(#heavyBlur)"/>
    <rect x="280" y="400" width="80" height="60" rx="8" fill="url(#accentGradient)" filter="url(#heavyBlur)"/>
  </g>
  
  <!-- Middle layer - medium blur array elements -->
  <g opacity="0.25">
    <rect x="120" y="130" width="50" height="35" rx="4" fill="#3b82f6" filter="url(#mediumBlur)"/>
    <rect x="200" y="180" width="45" height="30" rx="4" fill="#2563eb" filter="url(#mediumBlur)"/>
    <rect x="150" y="250" width="55" height="40" rx="4" fill="#1d4ed8" filter="url(#mediumBlur)"/>
    <rect x="180" y="320" width="50" height="35" rx="4" fill="#3b82f6" filter="url(#mediumBlur)"/>
    <rect x="130" y="380" width="45" height="30" rx="4" fill="#2563eb" filter="url(#mediumBlur)"/>
  </g>
  
  <!-- Foreground layer - subtle blur index markers -->
  <g opacity="0.4">
    <circle cx="140" cy="110" r="12" fill="#60a5fa" filter="url(#softBlur)"/>
    <circle cx="250" cy="160" r="10" fill="#3b82f6" filter="url(#softBlur)"/>
    <circle cx="170" cy="210" r="14" fill="#2563eb" filter="url(#softBlur)"/>
    <circle cx="220" cy="270" r="11" fill="#60a5fa" filter="url(#softBlur)"/>
    <circle cx="160" cy="330" r="13" fill="#3b82f6" filter="url(#softBlur)"/>
    <circle cx="240" cy="380" r="10" fill="#2563eb" filter="url(#softBlur)"/>
    <circle cx="180" cy="430" r="12" fill="#60a5fa" filter="url(#softBlur)"/>
  </g>
  
  <!-- Array bracket symbols - subtle and modern -->
  <g opacity="0.2" fill="none" stroke="#60a5fa" stroke-width="2">
    <path d="M 80 200 L 70 200 L 70 250 L 80 250"/>
    <path d="M 320 200 L 330 200 L 330 250 L 320 250"/>
  </g>
   
  <!-- Title: ARLIZ -->
  <text x="200" y="180" font-family="Inter, system-ui, sans-serif" font-size="68" font-weight="200" 
        fill="#f8fafc" text-anchor="middle" filter="url(#titleGlow)" letter-spacing="4px">ARLIZ</text>
  
  <!-- Subtitle with modern typography -->
  <text x="200" y="225" font-family="Inter, system-ui, sans-serif" font-size="12" font-weight="300" 
        fill="#cbd5e1" text-anchor="middle" opacity="0.9" letter-spacing="2px">A JOURNEY THROUGH ARRAYS</text>
  
  <!-- Author name -->
  <text x="200" y="520" font-family="Inter, system-ui, sans-serif" font-size="22" font-weight="300" 
        fill="#e2e8f0" text-anchor="middle" letter-spacing="1px">Mahdi</text>
  
  <!-- Clean border accent -->
  <rect x="20" y="20" width="360" height="560" fill="none" stroke="#334155" stroke-width="1" opacity="0.3" rx="4"/>
  
</svg>
